<mxfile host="app.diagrams.net" agent="Mozilla/5.0 (Windows NT 10.0; Win64; x64) AppleWebKit/537.36 (KHTML, like Gecko) Chrome/126.0.0.0 Safari/537.36" version="24.7.6" pages="4">
  <diagram name="Home (To-Do-List)" id="03018318-947c-dd8e-b7a3-06fadd420f32">
    <mxGraphModel dx="1434" dy="772" grid="1" gridSize="10" guides="1" tooltips="1" connect="1" arrows="1" fold="1" page="1" pageScale="1" pageWidth="1100" pageHeight="850" background="none" math="0" shadow="0">
      <root>
        <mxCell id="0" />
        <mxCell id="1" parent="0" />
        <mxCell id="677b7b8949515195-1" value="" style="whiteSpace=wrap;html=1;rounded=0;shadow=0;labelBackgroundColor=none;strokeColor=#000000;strokeWidth=1;fillColor=none;fontFamily=Verdana;fontSize=12;fontColor=#000000;align=center;comic=1;" parent="1" vertex="1">
          <mxGeometry y="20" width="1060" height="810" as="geometry" />
        </mxCell>
        <mxCell id="677b7b8949515195-2" value="To-Do-List" style="whiteSpace=wrap;html=1;rounded=0;shadow=0;labelBackgroundColor=none;strokeWidth=1;fontFamily=Verdana;fontSize=28;align=center;comic=1;" parent="1" vertex="1">
          <mxGeometry x="40" y="60" width="190" height="50" as="geometry" />
        </mxCell>
        <mxCell id="677b7b8949515195-4" value="&lt;font style=&quot;font-size: 18px;&quot;&gt;Contact&lt;/font&gt;" style="text;html=1;points=[];align=left;verticalAlign=top;spacingTop=-4;fontSize=14;fontFamily=Verdana" parent="1" vertex="1">
          <mxGeometry x="260" y="67.5" width="80" height="35" as="geometry" />
        </mxCell>
        <mxCell id="677b7b8949515195-9" value="" style="line;strokeWidth=1;html=1;rounded=0;shadow=0;labelBackgroundColor=none;fillColor=none;fontFamily=Verdana;fontSize=14;fontColor=#000000;align=center;comic=1;" parent="1" vertex="1">
          <mxGeometry x="20" y="140" width="1060" height="10" as="geometry" />
        </mxCell>
        <mxCell id="dKal2XUsPrfcDu0NBoXA-1" value="&lt;font style=&quot;font-size: 18px;&quot;&gt;Login&lt;/font&gt;" style="text;html=1;points=[];align=left;verticalAlign=top;spacingTop=-4;fontSize=14;fontFamily=Verdana" vertex="1" parent="1">
          <mxGeometry x="350" y="67.5" width="80" height="35" as="geometry" />
        </mxCell>
        <mxCell id="dKal2XUsPrfcDu0NBoXA-2" value="&lt;font style=&quot;font-size: 18px;&quot;&gt;Account&lt;/font&gt;" style="text;html=1;points=[];align=left;verticalAlign=top;spacingTop=-4;fontSize=14;fontFamily=Verdana" vertex="1" parent="1">
          <mxGeometry x="420" y="67.5" width="80" height="35" as="geometry" />
        </mxCell>
        <mxCell id="cOqZbK_t2_FdgQ2NEAei-1" value="&lt;i&gt;&lt;font style=&quot;font-size: 18px;&quot;&gt;(add a new task)&lt;/font&gt;&lt;/i&gt;" style="rounded=1;whiteSpace=wrap;html=1;" vertex="1" parent="1">
          <mxGeometry x="340" y="200" width="360" height="60" as="geometry" />
        </mxCell>
        <mxCell id="cOqZbK_t2_FdgQ2NEAei-2" value="Add" style="strokeWidth=1;shadow=0;dashed=0;align=center;html=1;shape=mxgraph.mockup.buttons.button;strokeColor=#666666;fontColor=#ffffff;mainText=;buttonStyle=round;fontSize=17;fontStyle=1;fillColor=#008cff;whiteSpace=wrap;" vertex="1" parent="1">
          <mxGeometry x="720" y="205" width="150" height="50" as="geometry" />
        </mxCell>
        <mxCell id="cOqZbK_t2_FdgQ2NEAei-3" value="&lt;font style=&quot;font-size: 24px;&quot;&gt;Incomplete Tasks&lt;/font&gt;" style="text;html=1;align=center;verticalAlign=middle;whiteSpace=wrap;rounded=0;" vertex="1" parent="1">
          <mxGeometry x="420" y="300" width="200" height="30" as="geometry" />
        </mxCell>
        <mxCell id="cOqZbK_t2_FdgQ2NEAei-4" value="&lt;font style=&quot;font-size: 24px;&quot;&gt;Completed Tasks&lt;/font&gt;" style="text;html=1;align=center;verticalAlign=middle;whiteSpace=wrap;rounded=0;" vertex="1" parent="1">
          <mxGeometry x="430" y="520" width="200" height="30" as="geometry" />
        </mxCell>
        <mxCell id="cOqZbK_t2_FdgQ2NEAei-5" value="Example task number six" style="strokeWidth=1;shadow=0;dashed=0;align=center;html=1;shape=mxgraph.mockup.forms.rrect;rSize=0;fillColor=#eeeeee;strokeColor=#999999;gradientColor=#cccccc;align=left;spacingLeft=4;fontSize=17;fontColor=#666666;labelPosition=right;" vertex="1" parent="1">
          <mxGeometry x="170" y="380" width="15" height="15" as="geometry" />
        </mxCell>
        <mxCell id="cOqZbK_t2_FdgQ2NEAei-6" value="Example task number five" style="strokeWidth=1;shadow=0;dashed=0;align=center;html=1;shape=mxgraph.mockup.forms.rrect;rSize=0;fillColor=#eeeeee;strokeColor=#999999;gradientColor=#cccccc;align=left;spacingLeft=4;fontSize=17;fontColor=#666666;labelPosition=right;" vertex="1" parent="1">
          <mxGeometry x="170" y="340" width="15" height="15" as="geometry" />
        </mxCell>
        <mxCell id="cOqZbK_t2_FdgQ2NEAei-7" value="Example task number eight" style="strokeWidth=1;shadow=0;dashed=0;align=center;html=1;shape=mxgraph.mockup.forms.rrect;rSize=0;fillColor=#eeeeee;strokeColor=#999999;gradientColor=#cccccc;align=left;spacingLeft=4;fontSize=17;fontColor=#666666;labelPosition=right;" vertex="1" parent="1">
          <mxGeometry x="170" y="465" width="15" height="15" as="geometry" />
        </mxCell>
        <mxCell id="cOqZbK_t2_FdgQ2NEAei-8" value="Example task number seven" style="strokeWidth=1;shadow=0;dashed=0;align=center;html=1;shape=mxgraph.mockup.forms.rrect;rSize=0;fillColor=#eeeeee;strokeColor=#999999;gradientColor=#cccccc;align=left;spacingLeft=4;fontSize=17;fontColor=#666666;labelPosition=right;" vertex="1" parent="1">
          <mxGeometry x="170" y="425" width="15" height="15" as="geometry" />
        </mxCell>
        <mxCell id="cOqZbK_t2_FdgQ2NEAei-9" value="Example task number one" style="strokeWidth=1;shadow=0;dashed=0;align=center;html=1;shape=mxgraph.mockup.forms.checkbox;rSize=0;fillColor=default;strokeColor=#999999;gradientColor=#cccccc;align=left;spacingLeft=4;fontSize=17;fontColor=#666666;labelPosition=right;sketch=0;verticalAlign=top;spacing=3;spacingTop=-9;comic=0;treeMoving=0;treeFolding=0;part=0;container=0;fixDash=0;snapToPoint=0;" vertex="1" parent="1">
          <mxGeometry x="170" y="580" width="15" height="15" as="geometry" />
        </mxCell>
        <mxCell id="cOqZbK_t2_FdgQ2NEAei-10" value="Example task number two" style="strokeWidth=1;shadow=0;dashed=0;align=center;html=1;shape=mxgraph.mockup.forms.checkbox;rSize=0;fillColor=default;strokeColor=#999999;gradientColor=#cccccc;align=left;spacingLeft=4;fontSize=17;fontColor=#666666;labelPosition=right;sketch=0;verticalAlign=top;spacing=3;spacingTop=-9;comic=0;treeMoving=0;treeFolding=0;part=0;container=0;fixDash=0;snapToPoint=0;" vertex="1" parent="1">
          <mxGeometry x="170" y="630" width="15" height="15" as="geometry" />
        </mxCell>
        <mxCell id="cOqZbK_t2_FdgQ2NEAei-11" value="Example task number three" style="strokeWidth=1;shadow=0;dashed=0;align=center;html=1;shape=mxgraph.mockup.forms.checkbox;rSize=0;fillColor=default;strokeColor=#999999;gradientColor=#cccccc;align=left;spacingLeft=4;fontSize=17;fontColor=#666666;labelPosition=right;sketch=0;verticalAlign=top;spacing=3;spacingTop=-9;comic=0;treeMoving=0;treeFolding=0;part=0;container=0;fixDash=0;snapToPoint=0;" vertex="1" parent="1">
          <mxGeometry x="170" y="680" width="15" height="15" as="geometry" />
        </mxCell>
        <mxCell id="cOqZbK_t2_FdgQ2NEAei-12" value="Example task number four" style="strokeWidth=1;shadow=0;dashed=0;align=center;html=1;shape=mxgraph.mockup.forms.checkbox;rSize=0;fillColor=default;strokeColor=#999999;gradientColor=#cccccc;align=left;spacingLeft=4;fontSize=17;fontColor=#666666;labelPosition=right;sketch=0;verticalAlign=top;spacing=3;spacingTop=-9;comic=0;treeMoving=0;treeFolding=0;part=0;container=0;fixDash=0;snapToPoint=0;" vertex="1" parent="1">
          <mxGeometry x="170" y="740" width="15" height="15" as="geometry" />
        </mxCell>
        <mxCell id="cOqZbK_t2_FdgQ2NEAei-13" value="&lt;font style=&quot;font-size: 14px; font-weight: normal;&quot;&gt;Remove&lt;/font&gt;" style="strokeWidth=1;shadow=0;dashed=0;align=center;html=1;shape=mxgraph.mockup.buttons.button;strokeColor=#666666;fontColor=#ffffff;mainText=;buttonStyle=round;fontSize=17;fontStyle=1;fillColor=#FF9999;whiteSpace=wrap;" vertex="1" parent="1">
          <mxGeometry x="850" y="350" width="70" height="17.5" as="geometry" />
        </mxCell>
        <mxCell id="cOqZbK_t2_FdgQ2NEAei-14" value="&lt;font style=&quot;font-size: 14px; font-weight: normal;&quot;&gt;Remove&lt;/font&gt;" style="strokeWidth=1;shadow=0;dashed=0;align=center;html=1;shape=mxgraph.mockup.buttons.button;strokeColor=#666666;fontColor=#ffffff;mainText=;buttonStyle=round;fontSize=17;fontStyle=1;fillColor=#FF9999;whiteSpace=wrap;" vertex="1" parent="1">
          <mxGeometry x="850" y="395" width="70" height="17.5" as="geometry" />
        </mxCell>
        <mxCell id="cOqZbK_t2_FdgQ2NEAei-15" value="&lt;font style=&quot;font-size: 14px; font-weight: normal;&quot;&gt;Remove&lt;/font&gt;" style="strokeWidth=1;shadow=0;dashed=0;align=center;html=1;shape=mxgraph.mockup.buttons.button;strokeColor=#666666;fontColor=#ffffff;mainText=;buttonStyle=round;fontSize=17;fontStyle=1;fillColor=#FF9999;whiteSpace=wrap;" vertex="1" parent="1">
          <mxGeometry x="850" y="440" width="70" height="17.5" as="geometry" />
        </mxCell>
        <mxCell id="cOqZbK_t2_FdgQ2NEAei-16" value="&lt;font style=&quot;font-size: 14px; font-weight: normal;&quot;&gt;Remove&lt;/font&gt;" style="strokeWidth=1;shadow=0;dashed=0;align=center;html=1;shape=mxgraph.mockup.buttons.button;strokeColor=#666666;fontColor=#ffffff;mainText=;buttonStyle=round;fontSize=17;fontStyle=1;fillColor=#FF9999;whiteSpace=wrap;" vertex="1" parent="1">
          <mxGeometry x="850" y="480" width="70" height="17.5" as="geometry" />
        </mxCell>
        <mxCell id="cOqZbK_t2_FdgQ2NEAei-17" value="&lt;font style=&quot;font-size: 14px; font-weight: normal;&quot;&gt;Remove&lt;/font&gt;" style="strokeWidth=1;shadow=0;dashed=0;align=center;html=1;shape=mxgraph.mockup.buttons.button;strokeColor=#666666;fontColor=#ffffff;mainText=;buttonStyle=round;fontSize=17;fontStyle=1;fillColor=#FF9999;whiteSpace=wrap;" vertex="1" parent="1">
          <mxGeometry x="850" y="580" width="70" height="17.5" as="geometry" />
        </mxCell>
        <mxCell id="cOqZbK_t2_FdgQ2NEAei-18" value="&lt;font style=&quot;font-size: 14px; font-weight: normal;&quot;&gt;Remove&lt;/font&gt;" style="strokeWidth=1;shadow=0;dashed=0;align=center;html=1;shape=mxgraph.mockup.buttons.button;strokeColor=#666666;fontColor=#ffffff;mainText=;buttonStyle=round;fontSize=17;fontStyle=1;fillColor=#FF9999;whiteSpace=wrap;" vertex="1" parent="1">
          <mxGeometry x="850" y="628.75" width="70" height="17.5" as="geometry" />
        </mxCell>
        <mxCell id="cOqZbK_t2_FdgQ2NEAei-19" value="&lt;font style=&quot;font-size: 14px; font-weight: normal;&quot;&gt;Remove&lt;/font&gt;" style="strokeWidth=1;shadow=0;dashed=0;align=center;html=1;shape=mxgraph.mockup.buttons.button;strokeColor=#666666;fontColor=#ffffff;mainText=;buttonStyle=round;fontSize=17;fontStyle=1;fillColor=#FF9999;whiteSpace=wrap;" vertex="1" parent="1">
          <mxGeometry x="850" y="678.75" width="70" height="17.5" as="geometry" />
        </mxCell>
        <mxCell id="cOqZbK_t2_FdgQ2NEAei-20" value="&lt;font style=&quot;font-size: 14px; font-weight: normal;&quot;&gt;Remove&lt;/font&gt;" style="strokeWidth=1;shadow=0;dashed=0;align=center;html=1;shape=mxgraph.mockup.buttons.button;strokeColor=#666666;fontColor=#ffffff;mainText=;buttonStyle=round;fontSize=17;fontStyle=1;fillColor=#FF9999;whiteSpace=wrap;" vertex="1" parent="1">
          <mxGeometry x="850" y="730" width="70" height="20" as="geometry" />
        </mxCell>
      </root>
    </mxGraphModel>
  </diagram>
  <diagram id="1y1QuGyFc_R8QKhsncCZ" name="Contact">
    <mxGraphModel dx="1434" dy="772" grid="1" gridSize="10" guides="1" tooltips="1" connect="1" arrows="1" fold="1" page="1" pageScale="1" pageWidth="1100" pageHeight="850" math="0" shadow="0">
      <root>
        <mxCell id="0" />
        <mxCell id="1" parent="0" />
        <mxCell id="KFPRD_MvhOD_NgEheozA-7" value="" style="rounded=1;whiteSpace=wrap;html=1;" vertex="1" parent="1">
          <mxGeometry x="250" y="55" width="90" height="55" as="geometry" />
        </mxCell>
        <mxCell id="nXffhkW9eazsmwvyAMe_-1" value="" style="whiteSpace=wrap;html=1;rounded=0;shadow=0;labelBackgroundColor=none;strokeColor=#000000;strokeWidth=1;fillColor=none;fontFamily=Verdana;fontSize=12;fontColor=#000000;align=center;comic=1;" vertex="1" parent="1">
          <mxGeometry x="20" y="20" width="1060" height="810" as="geometry" />
        </mxCell>
        <mxCell id="KFPRD_MvhOD_NgEheozA-1" value="" style="whiteSpace=wrap;html=1;rounded=0;shadow=0;labelBackgroundColor=none;strokeColor=#000000;strokeWidth=1;fillColor=none;fontFamily=Verdana;fontSize=12;fontColor=#000000;align=center;comic=1;" vertex="1" parent="1">
          <mxGeometry x="20" y="20" width="1060" height="810" as="geometry" />
        </mxCell>
        <mxCell id="KFPRD_MvhOD_NgEheozA-3" value="&lt;font style=&quot;font-size: 18px;&quot;&gt;Contact&lt;/font&gt;" style="text;html=1;points=[];align=left;verticalAlign=top;spacingTop=-4;fontSize=14;fontFamily=Verdana" vertex="1" parent="1">
          <mxGeometry x="260" y="67.5" width="80" height="35" as="geometry" />
        </mxCell>
        <mxCell id="KFPRD_MvhOD_NgEheozA-2" value="To-Do-List" style="whiteSpace=wrap;html=1;rounded=0;shadow=0;labelBackgroundColor=none;strokeWidth=1;fontFamily=Verdana;fontSize=28;align=center;comic=1;" vertex="1" parent="1">
          <mxGeometry x="40" y="60" width="190" height="50" as="geometry" />
        </mxCell>
        <mxCell id="KFPRD_MvhOD_NgEheozA-4" value="" style="line;strokeWidth=1;html=1;rounded=0;shadow=0;labelBackgroundColor=none;fillColor=none;fontFamily=Verdana;fontSize=14;fontColor=#000000;align=center;comic=1;" vertex="1" parent="1">
          <mxGeometry x="20" y="140" width="1060" height="10" as="geometry" />
        </mxCell>
        <mxCell id="KFPRD_MvhOD_NgEheozA-5" value="&lt;font style=&quot;font-size: 18px;&quot;&gt;Login&lt;/font&gt;" style="text;html=1;points=[];align=left;verticalAlign=top;spacingTop=-4;fontSize=14;fontFamily=Verdana" vertex="1" parent="1">
          <mxGeometry x="350" y="67.5" width="80" height="35" as="geometry" />
        </mxCell>
        <mxCell id="KFPRD_MvhOD_NgEheozA-6" value="&lt;font style=&quot;font-size: 18px;&quot;&gt;Account&lt;/font&gt;" style="text;html=1;points=[];align=left;verticalAlign=top;spacingTop=-4;fontSize=14;fontFamily=Verdana" vertex="1" parent="1">
          <mxGeometry x="420" y="67.5" width="80" height="35" as="geometry" />
        </mxCell>
        <mxCell id="KFPRD_MvhOD_NgEheozA-8" value="&lt;i&gt;&lt;font style=&quot;font-size: 14px;&quot;&gt;(enter your first name here)&lt;/font&gt;&lt;/i&gt;" style="rounded=1;whiteSpace=wrap;html=1;" vertex="1" parent="1">
          <mxGeometry x="70" y="365" width="210" height="45" as="geometry" />
        </mxCell>
        <mxCell id="KFPRD_MvhOD_NgEheozA-10" value="&lt;i&gt;&lt;font style=&quot;font-size: 14px;&quot;&gt;(enter your last name here)&lt;/font&gt;&lt;/i&gt;" style="rounded=1;whiteSpace=wrap;html=1;" vertex="1" parent="1">
          <mxGeometry x="300" y="365" width="210" height="45" as="geometry" />
        </mxCell>
        <mxCell id="KFPRD_MvhOD_NgEheozA-11" value="&lt;i&gt;&lt;font style=&quot;font-size: 14px;&quot;&gt;(enter your e-mail here)&lt;/font&gt;&lt;/i&gt;" style="rounded=1;whiteSpace=wrap;html=1;" vertex="1" parent="1">
          <mxGeometry x="530" y="365" width="200" height="45" as="geometry" />
        </mxCell>
        <mxCell id="KFPRD_MvhOD_NgEheozA-12" value="&lt;i&gt;&lt;font style=&quot;font-size: 14px;&quot;&gt;(please share any comments here)&lt;/font&gt;&lt;/i&gt;" style="rounded=1;whiteSpace=wrap;html=1;" vertex="1" parent="1">
          <mxGeometry x="750" y="280" width="260" height="135" as="geometry" />
        </mxCell>
        <mxCell id="KFPRD_MvhOD_NgEheozA-13" value="Submit" style="strokeWidth=1;shadow=0;dashed=0;align=center;html=1;shape=mxgraph.mockup.buttons.button;strokeColor=#666666;fontColor=#ffffff;mainText=;buttonStyle=round;fontSize=17;fontStyle=1;fillColor=#008cff;whiteSpace=wrap;" vertex="1" parent="1">
          <mxGeometry x="800" y="430" width="150" height="50" as="geometry" />
        </mxCell>
        <mxCell id="KFPRD_MvhOD_NgEheozA-14" value="&lt;font style=&quot;font-size: 24px;&quot;&gt;First Name&lt;/font&gt;" style="text;html=1;align=center;verticalAlign=middle;whiteSpace=wrap;rounded=0;" vertex="1" parent="1">
          <mxGeometry x="75" y="240" width="200" height="30" as="geometry" />
        </mxCell>
        <mxCell id="KFPRD_MvhOD_NgEheozA-15" value="&lt;font style=&quot;font-size: 24px;&quot;&gt;Last Name&lt;/font&gt;" style="text;html=1;align=center;verticalAlign=middle;whiteSpace=wrap;rounded=0;" vertex="1" parent="1">
          <mxGeometry x="300" y="240" width="200" height="30" as="geometry" />
        </mxCell>
        <mxCell id="KFPRD_MvhOD_NgEheozA-16" value="&lt;font style=&quot;font-size: 24px;&quot;&gt;E-Mail&amp;nbsp;&lt;/font&gt;" style="text;html=1;align=center;verticalAlign=middle;whiteSpace=wrap;rounded=0;" vertex="1" parent="1">
          <mxGeometry x="530" y="240" width="200" height="30" as="geometry" />
        </mxCell>
        <mxCell id="KFPRD_MvhOD_NgEheozA-17" value="&lt;font style=&quot;font-size: 24px;&quot;&gt;Comments&lt;/font&gt;" style="text;html=1;align=center;verticalAlign=middle;whiteSpace=wrap;rounded=0;" vertex="1" parent="1">
          <mxGeometry x="775" y="240" width="200" height="30" as="geometry" />
        </mxCell>
      </root>
    </mxGraphModel>
  </diagram>
  <diagram id="9lVRmtcvmyWDrs9E9-6W" name="Login">
    <mxGraphModel dx="1434" dy="772" grid="1" gridSize="10" guides="1" tooltips="1" connect="1" arrows="1" fold="1" page="1" pageScale="1" pageWidth="1100" pageHeight="850" math="0" shadow="0">
      <root>
        <mxCell id="0" />
        <mxCell id="1" parent="0" />
        <mxCell id="ulDlX9Y1v627Obb-I0jr-2" value="" style="whiteSpace=wrap;html=1;rounded=0;shadow=0;labelBackgroundColor=none;strokeColor=#000000;strokeWidth=1;fillColor=none;fontFamily=Verdana;fontSize=12;fontColor=#000000;align=center;comic=1;" vertex="1" parent="1">
          <mxGeometry x="20" y="20" width="1060" height="810" as="geometry" />
        </mxCell>
        <mxCell id="ulDlX9Y1v627Obb-I0jr-3" value="" style="whiteSpace=wrap;html=1;rounded=0;shadow=0;labelBackgroundColor=none;strokeColor=#000000;strokeWidth=1;fillColor=none;fontFamily=Verdana;fontSize=12;fontColor=#000000;align=center;comic=1;" vertex="1" parent="1">
          <mxGeometry x="20" y="20" width="1060" height="810" as="geometry" />
        </mxCell>
        <mxCell id="ulDlX9Y1v627Obb-I0jr-4" value="&lt;font style=&quot;font-size: 18px;&quot;&gt;Contact&lt;/font&gt;" style="text;html=1;points=[];align=left;verticalAlign=top;spacingTop=-4;fontSize=14;fontFamily=Verdana" vertex="1" parent="1">
          <mxGeometry x="260" y="67.5" width="80" height="35" as="geometry" />
        </mxCell>
        <mxCell id="ulDlX9Y1v627Obb-I0jr-1" value="" style="rounded=1;whiteSpace=wrap;html=1;" vertex="1" parent="1">
          <mxGeometry x="340" y="60" width="70" height="45" as="geometry" />
        </mxCell>
        <mxCell id="ulDlX9Y1v627Obb-I0jr-5" value="To-Do-List" style="whiteSpace=wrap;html=1;rounded=0;shadow=0;labelBackgroundColor=none;strokeWidth=1;fontFamily=Verdana;fontSize=28;align=center;comic=1;" vertex="1" parent="1">
          <mxGeometry x="40" y="60" width="190" height="50" as="geometry" />
        </mxCell>
        <mxCell id="ulDlX9Y1v627Obb-I0jr-6" value="" style="line;strokeWidth=1;html=1;rounded=0;shadow=0;labelBackgroundColor=none;fillColor=none;fontFamily=Verdana;fontSize=14;fontColor=#000000;align=center;comic=1;" vertex="1" parent="1">
          <mxGeometry x="20" y="140" width="1060" height="10" as="geometry" />
        </mxCell>
        <mxCell id="ulDlX9Y1v627Obb-I0jr-7" value="&lt;font style=&quot;font-size: 18px;&quot;&gt;Login&lt;/font&gt;" style="text;html=1;points=[];align=left;verticalAlign=top;spacingTop=-4;fontSize=14;fontFamily=Verdana" vertex="1" parent="1">
          <mxGeometry x="350" y="67.5" width="80" height="35" as="geometry" />
        </mxCell>
        <mxCell id="ulDlX9Y1v627Obb-I0jr-8" value="&lt;font style=&quot;font-size: 18px;&quot;&gt;Account&lt;/font&gt;" style="text;html=1;points=[];align=left;verticalAlign=top;spacingTop=-4;fontSize=14;fontFamily=Verdana" vertex="1" parent="1">
          <mxGeometry x="420" y="67.5" width="80" height="35" as="geometry" />
        </mxCell>
        <mxCell id="ulDlX9Y1v627Obb-I0jr-9" value="&lt;i&gt;(enter your username here)&lt;/i&gt;" style="rounded=1;whiteSpace=wrap;html=1;" vertex="1" parent="1">
          <mxGeometry x="210" y="312.5" width="210" height="45" as="geometry" />
        </mxCell>
        <mxCell id="ulDlX9Y1v627Obb-I0jr-10" value="&lt;i&gt;(enter your password here)&lt;/i&gt;" style="rounded=1;whiteSpace=wrap;html=1;" vertex="1" parent="1">
          <mxGeometry x="460" y="312.5" width="210" height="45" as="geometry" />
        </mxCell>
        <mxCell id="ulDlX9Y1v627Obb-I0jr-13" value="Submit" style="strokeWidth=1;shadow=0;dashed=0;align=center;html=1;shape=mxgraph.mockup.buttons.button;strokeColor=#666666;fontColor=#ffffff;mainText=;buttonStyle=round;fontSize=17;fontStyle=1;fillColor=#008cff;whiteSpace=wrap;" vertex="1" parent="1">
          <mxGeometry x="700" y="312.5" width="150" height="50" as="geometry" />
        </mxCell>
        <mxCell id="ulDlX9Y1v627Obb-I0jr-14" value="&lt;font style=&quot;font-size: 24px;&quot;&gt;Login&lt;/font&gt;" style="text;html=1;align=center;verticalAlign=middle;whiteSpace=wrap;rounded=0;" vertex="1" parent="1">
          <mxGeometry x="75" y="320" width="200" height="30" as="geometry" />
        </mxCell>
        <mxCell id="ulDlX9Y1v627Obb-I0jr-15" value="&lt;font style=&quot;font-size: 24px;&quot;&gt;Password&lt;/font&gt;" style="text;html=1;align=center;verticalAlign=middle;whiteSpace=wrap;rounded=0;" vertex="1" parent="1">
          <mxGeometry x="460" y="270" width="200" height="30" as="geometry" />
        </mxCell>
        <mxCell id="ulDlX9Y1v627Obb-I0jr-16" value="&lt;font style=&quot;font-size: 24px;&quot;&gt;Username&lt;/font&gt;" style="text;html=1;align=center;verticalAlign=middle;whiteSpace=wrap;rounded=0;" vertex="1" parent="1">
          <mxGeometry x="210" y="270" width="200" height="30" as="geometry" />
        </mxCell>
        <mxCell id="ulDlX9Y1v627Obb-I0jr-18" value="&lt;font style=&quot;font-size: 18px;&quot;&gt;** Forgot Password ?&amp;nbsp; reset password under Account tab **&lt;/font&gt;" style="text;html=1;align=center;verticalAlign=middle;whiteSpace=wrap;rounded=0;" vertex="1" parent="1">
          <mxGeometry x="250" y="390" width="520" height="30" as="geometry" />
        </mxCell>
      </root>
    </mxGraphModel>
  </diagram>
  <diagram id="kC-b1vQ9F31La0pofrKZ" name="Account">
    <mxGraphModel dx="1434" dy="772" grid="1" gridSize="10" guides="1" tooltips="1" connect="1" arrows="1" fold="1" page="1" pageScale="1" pageWidth="1100" pageHeight="850" math="0" shadow="0">
      <root>
        <mxCell id="0" />
        <mxCell id="1" parent="0" />
        <mxCell id="UJX85PKX0mdHpqlkLSHi-7" value="&lt;font style=&quot;font-size: 18px;&quot;&gt;Login&lt;/font&gt;" style="text;html=1;points=[];align=left;verticalAlign=top;spacingTop=-4;fontSize=14;fontFamily=Verdana" vertex="1" parent="1">
          <mxGeometry x="350" y="67.5" width="80" height="35" as="geometry" />
        </mxCell>
        <mxCell id="UJX85PKX0mdHpqlkLSHi-1" value="" style="whiteSpace=wrap;html=1;rounded=0;shadow=0;labelBackgroundColor=none;strokeColor=#000000;strokeWidth=1;fillColor=none;fontFamily=Verdana;fontSize=12;fontColor=#000000;align=center;comic=1;" vertex="1" parent="1">
          <mxGeometry x="20" y="20" width="1060" height="810" as="geometry" />
        </mxCell>
        <mxCell id="UJX85PKX0mdHpqlkLSHi-2" value="" style="whiteSpace=wrap;html=1;rounded=0;shadow=0;labelBackgroundColor=none;strokeColor=#000000;strokeWidth=1;fillColor=none;fontFamily=Verdana;fontSize=12;fontColor=#000000;align=center;comic=1;" vertex="1" parent="1">
          <mxGeometry x="20" y="20" width="1060" height="810" as="geometry" />
        </mxCell>
        <mxCell id="UJX85PKX0mdHpqlkLSHi-3" value="&lt;font style=&quot;font-size: 18px;&quot;&gt;Contact&lt;/font&gt;" style="text;html=1;points=[];align=left;verticalAlign=top;spacingTop=-4;fontSize=14;fontFamily=Verdana" vertex="1" parent="1">
          <mxGeometry x="260" y="67.5" width="80" height="35" as="geometry" />
        </mxCell>
        <mxCell id="UJX85PKX0mdHpqlkLSHi-4" value="" style="rounded=1;whiteSpace=wrap;html=1;" vertex="1" parent="1">
          <mxGeometry x="410" y="62.5" width="100" height="45" as="geometry" />
        </mxCell>
        <mxCell id="UJX85PKX0mdHpqlkLSHi-5" value="To-Do-List" style="whiteSpace=wrap;html=1;rounded=0;shadow=0;labelBackgroundColor=none;strokeWidth=1;fontFamily=Verdana;fontSize=28;align=center;comic=1;" vertex="1" parent="1">
          <mxGeometry x="40" y="60" width="190" height="50" as="geometry" />
        </mxCell>
        <mxCell id="UJX85PKX0mdHpqlkLSHi-6" value="" style="line;strokeWidth=1;html=1;rounded=0;shadow=0;labelBackgroundColor=none;fillColor=none;fontFamily=Verdana;fontSize=14;fontColor=#000000;align=center;comic=1;" vertex="1" parent="1">
          <mxGeometry x="20" y="140" width="1060" height="10" as="geometry" />
        </mxCell>
        <mxCell id="UJX85PKX0mdHpqlkLSHi-8" value="&lt;font style=&quot;font-size: 18px;&quot;&gt;Account&lt;/font&gt;" style="text;html=1;points=[];align=left;verticalAlign=top;spacingTop=-4;fontSize=14;fontFamily=Verdana" vertex="1" parent="1">
          <mxGeometry x="420" y="67.5" width="80" height="35" as="geometry" />
        </mxCell>
        <mxCell id="UJX85PKX0mdHpqlkLSHi-9" value="&lt;i&gt;(enter your e-mail here)&lt;/i&gt;" style="rounded=1;whiteSpace=wrap;html=1;" vertex="1" parent="1">
          <mxGeometry x="210" y="312.5" width="210" height="45" as="geometry" />
        </mxCell>
        <mxCell id="UJX85PKX0mdHpqlkLSHi-11" value="Submit" style="strokeWidth=1;shadow=0;dashed=0;align=center;html=1;shape=mxgraph.mockup.buttons.button;strokeColor=#666666;fontColor=#ffffff;mainText=;buttonStyle=round;fontSize=17;fontStyle=1;fillColor=#008cff;whiteSpace=wrap;" vertex="1" parent="1">
          <mxGeometry x="440" y="312.5" width="150" height="50" as="geometry" />
        </mxCell>
        <mxCell id="UJX85PKX0mdHpqlkLSHi-12" value="&lt;font style=&quot;font-size: 24px;&quot;&gt;Login&lt;/font&gt;" style="text;html=1;align=center;verticalAlign=middle;whiteSpace=wrap;rounded=0;" vertex="1" parent="1">
          <mxGeometry x="75" y="320" width="200" height="30" as="geometry" />
        </mxCell>
        <mxCell id="UJX85PKX0mdHpqlkLSHi-14" value="&lt;font style=&quot;font-size: 24px;&quot;&gt;Account Management&lt;/font&gt;" style="text;html=1;align=center;verticalAlign=middle;whiteSpace=wrap;rounded=0;" vertex="1" parent="1">
          <mxGeometry x="330" y="200" width="360" height="30" as="geometry" />
        </mxCell>
        <mxCell id="UJX85PKX0mdHpqlkLSHi-15" value="&lt;font style=&quot;font-size: 18px;&quot;&gt;Password reset link will be sent to the associated e-mail account&lt;/font&gt;" style="text;html=1;align=center;verticalAlign=middle;whiteSpace=wrap;rounded=0;" vertex="1" parent="1">
          <mxGeometry x="600" y="322.5" width="370" height="30" as="geometry" />
        </mxCell>
      </root>
    </mxGraphModel>
  </diagram>
</mxfile>
